<?xml version="1.0" encoding="UTF-8"?>
<svg version="1.1" xmlns="http://www.w3.org/2000/svg" width="206" height="245">
<path d="M0 0 C0.77916777 0.00291284 1.55833553 0.00582568 2.36111444 0.00882679 C3.18276289 0.00797237 4.00441134 0.00711794 4.85095823 0.00623763 C7.62560042 0.00458031 10.40018319 0.01010829 13.17481989 0.01555592 C15.15523776 0.01583776 17.13565574 0.01568011 19.11607355 0.01511341 C24.51047947 0.01482533 29.90486336 0.02072383 35.29926413 0.02768737 C40.93005841 0.03391909 46.56085314 0.03452456 52.19165033 0.03571278 C62.86245287 0.03882663 73.53324522 0.04704075 84.20404327 0.05706227 C96.34893681 0.06822173 108.49383082 0.07373343 120.6387282 0.0787577 C145.62919867 0.08922332 170.61966007 0.10682381 195.61012262 0.12908131 C195.63369222 14.43067951 195.65115116 28.73227462 195.66193479 43.0338884 C195.66704744 49.6773616 195.67412204 56.32082012 195.68556207 62.96428639 C195.69656662 69.3963867 195.70243596 75.82847445 195.70499986 82.26058346 C195.70682292 84.69328785 195.71038125 87.12599169 195.71585268 89.55869061 C195.74265943 101.99173119 195.64907539 114.40520512 195.17823786 126.83049732 C195.12231139 128.36247336 195.12231139 128.36247336 195.06525511 129.92539841 C193.93809814 156.45168557 184.45659305 179.88358239 165.37574762 198.36345631 C163.40738784 200.27260263 163.40738784 200.27260263 161.11012262 203.19158131 C147.52581578 219.15314184 119.01159863 239.64308741 98.09449762 243.60564381 C77.41200542 244.72840767 54.56691716 225.55177095 38.61012262 214.12908131 C37.79293756 213.5444109 36.9757525 212.95974049 36.13380426 212.35735279 C32.0541028 209.43189024 32.0541028 209.43189024 30.61012262 208.12908131 C30.61012262 207.46908131 30.61012262 206.80908131 30.61012262 206.12908131 C29.95012262 206.12908131 29.29012262 206.12908131 28.61012262 206.12908131 C28.61012262 205.46908131 28.61012262 204.80908131 28.61012262 204.12908131 C28.04551325 203.895761 27.48090387 203.66244068 26.89918512 203.42205006 C13.03434835 195.59054669 2.13773607 174.33654157 -2.05330378 159.67299134 C-7.09216453 140.62213817 -6.68565613 120.83819157 -6.62559682 101.28721029 C-6.61666691 97.75636866 -6.61857639 94.22552947 -6.61895758 90.69467884 C-6.61802956 84.79233751 -6.60945133 78.89004853 -6.59568793 72.98772389 C-6.57983244 66.162914 -6.57469502 59.33816065 -6.57542348 52.51333368 C-6.57609712 45.21553243 -6.5691828 37.91775292 -6.55997688 30.61995822 C-6.55784534 28.52283273 -6.55713577 26.42571073 -6.55673796 24.32858425 C-6.55555247 20.44411027 -6.54586578 16.55968383 -6.53514105 12.67522389 C-6.53559424 11.51334553 -6.53604742 10.35146717 -6.53651434 9.15438038 C-6.53224936 8.1048972 -6.52798437 7.05541401 -6.52359015 5.97412831 C-6.5219143 5.05711046 -6.52023846 4.1400926 -6.51851183 3.19528633 C-6.25717082 -1.00253232 -3.57545895 0.01013868 0 0 Z " fill="#F3F30A" transform="translate(9.389877378940582,1.8709186911582947)"/>
<path d="M0 0 C49.17 0 98.34 0 149 0 C149.061875 21.140625 149.12375 42.28125 149.1875 64.0625 C149.21481201 70.712854 149.24212402 77.36320801 149.27026367 84.21508789 C149.28381348 92.39929199 149.28381348 92.39929199 149.28633118 96.24290466 C149.29090778 98.90075546 149.30024465 101.55816306 149.31672668 104.21592712 C149.52953655 140.1361453 149.52953655 140.1361453 141.8125 153.9375 C141.44447266 154.63294922 141.07644531 155.32839844 140.69726562 156.04492188 C139.81527735 157.70580889 138.91033438 159.35447871 138 161 C129.90665075 152.99398905 122.38153415 144.58008789 115.24609375 135.71484375 C112.9116941 132.89326505 110.48009402 130.19409288 108 127.5 C103.88621091 123.0301488 100.02912703 118.40955107 96.21484375 113.68359375 C94.04367173 111.05291443 91.79758643 108.52057576 89.5 106 C86.47717579 102.68010514 83.57487839 99.30235888 80.75 95.8125 C75.53481485 89.37288007 70.08668248 83.14544597 64.64648438 76.89648438 C60.5682747 72.19904477 56.53227432 67.46516497 52.48828125 62.73828125 C50.98327951 60.98047082 49.47632297 59.22435554 47.96875 57.46875 C42.67013077 51.29711611 37.3917856 45.10944964 32.14428711 38.89428711 C28.78085832 34.91395861 25.39461851 30.953745 22 27 C20.4995095 25.2501178 18.99937916 23.49992798 17.49951172 21.74951172 C16.49386304 20.57620035 15.4876716 19.40335398 14.48095703 18.23095703 C13.00521598 16.51061273 11.53342462 14.78696293 10.0625 13.0625 C9.20785156 12.06347656 8.35320313 11.06445312 7.47265625 10.03515625 C4.83848051 6.80173674 2.42411056 3.39375479 0 0 Z " fill="#01013E" transform="translate(45,11)"/>
<path d="M0 0 C3.5903881 2.80281432 6.42899183 5.54127481 9.25 9.125 C12.23639306 12.85304697 15.277863 16.47367524 18.5 20 C22.41891252 24.29991791 26.09170869 28.75919547 29.75 33.28125 C32.64593537 36.78050524 35.69829956 40.12062616 38.7578125 43.4765625 C41.04515904 46.05082358 43.21548271 48.69289489 45.375 51.375 C49.05636689 55.92860712 52.92774473 60.23582516 56.91357422 64.51904297 C60.69476753 68.60642715 64.19682668 72.88034173 67.6875 77.21875 C70.1997101 80.24019188 72.82400827 83.12441773 75.5 86 C79.76918152 90.58760113 83.75758517 95.33442728 87.6875 100.21875 C90.64176364 103.77185086 93.76913424 107.1402368 96.91625977 110.52172852 C99.88715628 113.7329905 102.69961077 117.02627815 105.4375 120.4375 C108.80347256 124.62238539 112.3318508 128.58304558 116 132.5 C120.54835645 137.35881466 124.8476973 142.35287297 129.01953125 147.54296875 C131.61060812 150.75753947 134.29610494 153.88012108 137 157 C132.96951081 161.34910493 128.5578813 164.6037153 123.625 167.875 C122.83351563 168.4002124 122.04203125 168.9254248 121.2265625 169.46655273 C114.13039548 174.07863484 106.90323587 177.94260595 99 181 C98.27441895 181.3513501 97.54883789 181.7027002 96.80126953 182.06469727 C92.78110334 183.73631694 90.1717334 184.34919146 85.92871094 183.0847168 C82.46746351 181.48387686 79.18362824 179.70865241 75.875 177.8125 C74.67438386 177.15185485 73.4725483 176.49342119 72.26953125 175.8371582 C68.81800613 173.9386441 65.40686962 171.97754478 62 170 C61.1327832 169.50081055 60.26556641 169.00162109 59.37207031 168.48730469 C50.60151605 163.38572221 42.65971088 157.67926789 35 151 C34.24589844 150.39027344 33.49179687 149.78054687 32.71484375 149.15234375 C16.99463818 136.09376029 7.46143183 118.41398029 2 99 C1.66093124 97.82213928 1.32186249 96.64427856 0.97251892 95.4307251 C-0.16680331 90.8295723 -0.26833845 86.45904046 -0.22705078 81.73828125 C-0.22734283 80.84953812 -0.22763489 79.96079498 -0.22793579 79.04512024 C-0.22655258 76.13414433 -0.21103925 73.22343069 -0.1953125 70.3125 C-0.19157878 68.28369283 -0.1887335 66.25488384 -0.18673706 64.22607422 C-0.17912889 58.90617833 -0.15950473 53.58639298 -0.1373291 48.26654053 C-0.11680984 42.83005264 -0.10772237 37.39354676 -0.09765625 31.95703125 C-0.07625607 21.30463914 -0.04215432 10.65232879 0 0 Z " fill="#01013E" transform="translate(12,53)"/>
<path d="M0 0 C4.24960507 -0.27445286 8.49438145 -0.47258394 12.75024414 -0.60424805 C14.19321575 -0.65917084 15.63558618 -0.73395409 17.07641602 -0.82983398 C29.02510678 -1.60432451 29.02510678 -1.60432451 33.83642578 2.30419922 C36.11238175 5.10207253 38.07311894 7.95431943 40 11 C40.88562803 12.0580252 41.79592266 13.09700993 42.75 14.09375 C47.65396835 19.33827171 52.27655846 24.73018227 56.78515625 30.31640625 C58.95632827 32.94708557 61.20241357 35.47942424 63.5 38 C67.41891252 42.29991791 71.09170869 46.75919547 74.75 51.28125 C76.93501569 53.92147729 79.19171391 56.4672972 81.5 59 C85.41891252 63.29991791 89.09170869 67.75919547 92.75 72.28125 C94.93501569 74.92147729 97.19171391 77.4672972 99.5 80 C103.41891252 84.29991791 107.09170869 88.75919547 110.75 93.28125 C112.93501569 95.92147729 115.19171391 98.4672972 117.5 101 C121.41891252 105.29991791 125.09170869 109.75919547 128.75 114.28125 C130.93501569 116.92147729 133.19171391 119.4672972 135.5 122 C139.41891252 126.29991791 143.09170869 130.75919547 146.75 135.28125 C148.93501569 137.92147729 151.19171391 140.4672972 153.5 143 C158.2057274 148.16804448 162.64912303 153.53082533 167 159 C167.5878125 159.71027344 168.175625 160.42054688 168.78125 161.15234375 C170 163 170 163 169.625 165.6875 C165.69308855 173.70255026 159.37039098 179.8737143 153 186 C152.41444336 185.63430908 151.82888672 185.26861816 151.22558594 184.8918457 C146.64198873 182.0794288 142.03850003 179.46234924 137.203125 177.10546875 C136.22472656 176.62400391 135.24632812 176.14253906 134.23828125 175.64648438 C132.23803556 174.66989383 130.23004087 173.70902497 128.21484375 172.76367188 C119.36050746 168.34823133 115.3001629 163.17033555 112.09375 153.87890625 C111.5527803 152.1097137 111.02168151 150.33747575 110.5 148.5625 C106.19957166 134.19502211 106.19957166 134.19502211 95.6015625 124.265625 C94.13737474 123.55331744 92.67264471 122.84211389 91.20605469 122.13476562 C76.34061985 114.96035606 68.96079121 110.11846602 63 94 C62.25547729 91.99940176 61.5067163 90.00104647 60.74267578 88.0078125 C60.04070784 86.16912724 59.36332255 84.32111138 58.6875 82.47265625 C53.7480128 72.3078319 45.67944867 68.82063236 35.85351562 63.98242188 C25.89974029 58.88444961 19.54653692 52.74094038 16 42 C15.52499101 40.00389482 15.06741517 38.00358136 14.625 36 C13.0225194 29.1807483 10.32710774 23.15538719 4.3046875 19.25390625 C3.54414063 18.84011719 2.78359375 18.42632813 2 18 C1.83080981 30.59102493 2.7963347 39.68423439 11.76538086 48.94848633 C12.93877639 50.10933906 14.12424298 51.25813499 15.32226562 52.39355469 C17.76640271 54.73383729 19.99209597 57.22938387 22.25 59.75 C23.054375 60.6265625 23.85875 61.503125 24.6875 62.40625 C26.96385656 64.95946073 29.11340199 67.57925249 31.25 70.25 C35.52929888 75.56118655 40.14826564 80.48764199 44.83349609 85.43676758 C49.12291679 89.99216728 53.0852207 94.69448638 56.98828125 99.5859375 C59.49472888 102.59367466 62.24419476 105.26830985 65.05078125 107.9921875 C67.1175158 110.12104834 68.92584636 112.34806997 70.75 114.6875 C75.39296175 120.63085735 80.53679848 126.06298819 85.67675781 131.57226562 C88.52780094 134.64844647 91.26361922 137.82209164 94 141 C96.10239017 143.43903779 98.20675147 145.87636107 100.3125 148.3125 C100.87670654 148.96557129 101.44091309 149.61864258 102.0222168 150.29150391 C105.37756937 154.16376865 108.78167278 157.97866759 112.25 161.75 C115.5293447 165.32166878 118.64536758 168.97426736 121.6875 172.75 C124.70512932 176.49419385 127.83287126 179.90002362 131.29296875 183.23046875 C134.50652652 186.56168538 137.2356392 190.29458021 140 194 C141.65 193.67 143.3 193.34 145 193 C143.68 194.32 142.36 195.64 141 197 C136.81824376 195.40080106 134.23263228 192.31129305 131.3125 189.0625 C130.78213135 188.48056885 130.2517627 187.8986377 129.70532227 187.29907227 C125.73498679 182.90734132 121.98303048 178.36312478 118.27734375 173.74609375 C115.78173531 170.73680948 113.16234857 167.86061346 110.5 165 C106.23079221 160.41242561 102.24241261 155.66556996 98.3125 150.78125 C95.8002899 147.75980812 93.17599173 144.87558227 90.5 142 C86.23081848 137.41239887 82.24241483 132.66557272 78.3125 127.78125 C75.8002899 124.75980812 73.17599173 121.87558227 70.5 119 C66.23081848 114.41239887 62.24241483 109.66557272 58.3125 104.78125 C55.8002899 101.75980812 53.17599173 98.87558227 50.5 96 C46.23081848 91.41239887 42.24241483 86.66557272 38.3125 81.78125 C35.35823636 78.22814914 32.23086576 74.8597632 29.08374023 71.47827148 C26.11284372 68.2670095 23.30038923 64.97372185 20.5625 61.5625 C16.63120644 56.67321974 12.4573066 52.06839001 8.16040039 47.50219727 C6.76203115 46.01223892 5.38058298 44.50645379 4 43 C3.29238525 42.29576904 2.58477051 41.59153809 1.85571289 40.8659668 C-0.70880521 36.90531978 -0.50895972 33.81562928 -0.390625 29.19921875 C-0.38496521 28.36284378 -0.37930542 27.52646881 -0.37347412 26.66474915 C-0.35116268 24.00507289 -0.30097788 21.34676595 -0.25 18.6875 C-0.22992815 16.87957681 -0.21167858 15.07163241 -0.1953125 13.26367188 C-0.15131527 8.84192389 -0.08232546 4.42119375 0 0 Z " fill="#00003E" transform="translate(11,11)"/>
<path d="M0 0 C5.66670844 1.91131353 8.00722575 4.95999467 11 10 C12.60888911 13.71846986 13.63150105 17.55784981 14.6328125 21.4765625 C17.08670299 30.58698353 20.95199981 37.38585849 29.10546875 42.4140625 C31.42442899 43.6846399 33.75255865 44.89676155 36.11328125 46.0859375 C36.85408936 46.46363281 37.59489746 46.84132812 38.3581543 47.23046875 C39.82836166 47.972777 41.30741808 48.69790738 42.79614258 49.40234375 C52.22298565 54.11413528 56.65098018 61.18130455 60.125 70.875 C60.80224159 72.64677019 61.48190319 74.41761738 62.1640625 76.1875 C62.48149414 77.0228125 62.79892578 77.858125 63.12597656 78.71875 C68.14074936 91.80758715 74.87558543 96.23370243 87.1887207 102.10986328 C97.32525983 106.9616877 103.10510287 112.37567483 107 123.0625 C107.67382539 125.03924087 108.33958005 127.01874014 109 129 C109.95402968 131.80103115 110.93964362 134.58931761 111.9375 137.375 C112.16630859 138.05312744 112.39511719 138.73125488 112.63085938 139.42993164 C115.22964295 146.64549362 119.56855598 150.09553043 126.2890625 153.4453125 C126.87416595 153.74186737 127.45926941 154.03842224 128.06210327 154.34396362 C129.91188764 155.28029405 131.76773264 156.20361372 133.625 157.125 C135.48864167 158.0548926 137.35065932 158.98764835 139.20932007 159.92745972 C140.88953083 160.77634204 142.57476698 161.61525584 144.26025391 162.45361328 C146.63720547 163.79522897 148.23320653 164.95371378 150 167 C148.8101383 170.56958511 147.5494982 171.45961629 144.625 173.75 C143.83351562 174.38421875 143.04203125 175.0184375 142.2265625 175.671875 C141.49179688 176.11015625 140.75703125 176.5484375 140 177 C136.29723431 175.76574477 135.4964943 174.37754451 133.125 171.3125 C129.43264099 166.67600359 125.56892709 162.30827574 121.5 158 C116.87628001 153.09116058 112.53392892 148.05514053 108.31640625 142.7890625 C104.6430268 138.36614019 100.70232865 134.19864064 96.78125 129.99609375 C94.0450396 127.06143494 91.39823878 124.05796386 88.7734375 121.0234375 C86.54861908 118.48498829 84.27496681 115.99358224 82 113.5 C76.45699202 107.41355987 71.03078332 101.29399702 65.875 94.875 C61.17038065 89.08284022 56.11137812 83.66275372 51.0078125 78.22265625 C48.15453222 75.17862987 45.38811991 72.07033123 42.6640625 68.91015625 C40.68459874 66.63795489 38.6541683 64.41540128 36.625 62.1875 C33.55253227 58.78916448 30.61557378 55.32409477 27.75 51.75 C24.17100103 47.32005023 20.39484088 43.14838783 16.5 39 C15.39052632 37.79305945 14.28114993 36.58602946 13.171875 35.37890625 C11.23877083 33.28548735 9.29661509 31.34671653 7.203125 29.40234375 C0.37780889 22.54442263 0.02962079 16.18436672 -0.10449219 6.90795898 C-0.09865945 4.60340147 -0.06704222 2.30349358 0 0 Z " fill="#FDFDFD" transform="translate(13,29)"/>
<path d="M0 0 C3.21097544 1.07032515 3.78860486 1.62781204 5.875 4.125 C6.48730469 4.846875 7.09960938 5.56875 7.73046875 6.3125 C8.47941406 7.199375 9.22835937 8.08625 10 9 C11.50500764 10.74159127 13.01560106 12.4782462 14.52636719 14.21484375 C39.17548409 42.55915455 39.17548409 42.55915455 50.625 56.6875 C54.20222179 61.08582786 57.94597541 65.29298854 61.76171875 69.484375 C64.80397186 72.90359141 67.6686979 76.45425161 70.546875 80.01171875 C73.33451442 83.40748969 76.19174227 86.73704868 79.0625 90.0625 C82.51783133 94.06648557 85.9131258 98.095067 89.1875 102.25 C92.52605411 106.47837536 96.08476754 110.45483097 99.71484375 114.43359375 C102.85155234 117.95635878 105.79303362 121.62546546 108.7578125 125.29296875 C110.89483782 127.87303591 113.10735745 130.34714485 115.375 132.8125 C119.4865702 137.31872354 123.22827275 142.0479493 126.9597168 146.86694336 C130.76978701 151.76657064 134.78880359 156.4388761 139 161 C138.67 161.99 138.34 162.98 138 164 C126.15587438 160.82746635 111.72970355 153.75628475 104 144 C102.14343167 140.46595354 101.09123495 136.83054902 100 133 C99.31251676 130.7263387 98.60793443 128.4595903 97.88549805 126.19677734 C97.39260594 124.65148544 96.91517758 123.10114149 96.45629883 121.54541016 C93.89207808 113.41985081 90.28025078 107.91802508 82.62890625 103.875 C80.61624202 102.89693195 78.59373895 101.93888378 76.5625 101 C66.35649198 96.26451635 59.26675467 91.26390419 54.8828125 80.6171875 C53.81400339 77.44859413 53.01649197 74.23933839 52.1875 71 C48.58549343 58.21425148 41.22230831 53.35669212 30 47 C16.34694788 39.03279478 10.34611465 31.34763433 6.16796875 15.9296875 C5.69697374 14.08096914 5.22685528 12.23202713 4.7578125 10.3828125 C3.70664361 7.07759073 2.05869116 4.76858466 0 2 C0 1.34 0 0.68 0 0 Z " fill="#FDFDFD" transform="translate(39,13)"/>
<path d="M0 0 C66.33 0 132.66 0 201 0 C201.0309375 27.1940625 201.0309375 27.1940625 201.0625 54.9375 C201.071604 60.60929443 201.08070801 66.28108887 201.09008789 72.12475586 C201.09460449 79.18469238 201.09460449 79.18469238 201.09544373 82.51564026 C201.09695442 84.78537697 201.10041783 87.05511301 201.10557556 89.32484436 C201.13242962 101.79285625 201.04027715 114.24117359 200.56811523 126.70141602 C200.51218877 128.23339205 200.51218877 128.23339205 200.45513248 129.7963171 C199.32797552 156.32260426 189.84647043 179.75450108 170.765625 198.234375 C168.79726522 200.14352132 168.79726522 200.14352132 166.5 203.0625 C152.91569316 219.02406053 124.40147601 239.5140061 103.484375 243.4765625 C82.8018828 244.59932636 59.95679454 225.42268964 44 214 C43.18281494 213.41532959 42.36562988 212.83065918 41.52368164 212.22827148 C37.44398018 209.30280893 37.44398018 209.30280893 36 208 C36 207.34 36 206.68 36 206 C35.34 206 34.68 206 34 206 C34 205.34 34 204.68 34 204 C33.43539062 203.76667969 32.87078125 203.53335938 32.2890625 203.29296875 C18.26083152 195.36917275 7.60153732 174.07320279 3.1875 159.3125 C2.01737229 154.73716918 1.73366786 150.70520119 2 146 C3.85072288 149.31520793 4.71059717 152.57529703 5.625 156.25 C15.06571633 189.67430082 42.27187178 211.09958935 71.32373047 227.52587891 C75.8930517 230.04271539 80.50981293 232.4411363 85.1875 234.75 C86.03586426 235.18062744 86.88422852 235.61125488 87.75830078 236.05493164 C94.5479028 239.29417392 100.01727141 240.11441166 107.30859375 238.07421875 C122.46075285 231.35884237 136.19955753 222.49083277 149 212 C149.79349854 211.35877197 149.79349854 211.35877197 150.60302734 210.70458984 C172.96592712 192.59553899 189.39030889 172.60269083 194.6875 143.5625 C194.80706055 142.90725342 194.92662109 142.25200684 195.04980469 141.5769043 C196.82609355 130.97709361 197.14787621 120.23493447 197.20532227 109.50854492 C197.21535499 108.31751569 197.22538771 107.12648645 197.23572445 105.89936543 C197.26678475 102.09308546 197.29174481 98.28679496 197.31640625 94.48046875 C197.33483973 92.11087734 197.35367794 89.74128904 197.3729248 87.3717041 C197.44100793 78.64367285 197.50129325 69.91558218 197.5625 61.1875 C197.706875 41.655625 197.85125 22.12375 198 2 C132.66 2 67.32 2 0 2 C0 1.34 0 0.68 0 0 Z " fill="#CCCCD4" transform="translate(4,2)"/>
<path d="M0 0 C65.67 0 131.34 0 199 0 C199.103125 21.800625 199.20625 43.60125 199.3125 66.0625 C199.35802002 72.90105713 199.40354004 79.73961426 199.45043945 86.78540039 C199.47302246 95.25085449 199.47302246 95.25085449 199.47721863 99.23606873 C199.48480901 101.97138154 199.50024745 104.70546474 199.52787781 107.4405365 C199.85050371 140.87983179 195.15614622 170.25483558 171.08984375 194.9609375 C169.73979547 196.32056059 168.3723238 197.66286399 167 199 C166.01 198.67 165.02 198.34 164 198 C164.71285156 197.32195312 165.42570313 196.64390625 166.16015625 195.9453125 C181.47210037 181.16644691 190.85915173 163.55022011 194.6875 142.5625 C194.80706055 141.90725342 194.92662109 141.25200684 195.04980469 140.5769043 C196.82609355 129.97709361 197.14787621 119.23493447 197.20532227 108.50854492 C197.21535499 107.31751569 197.22538771 106.12648645 197.23572445 104.89936543 C197.26678475 101.09308546 197.29174481 97.28679496 197.31640625 93.48046875 C197.33483973 91.11087734 197.35367794 88.74128904 197.3729248 86.3717041 C197.44100793 77.64367285 197.50129325 68.91558218 197.5625 60.1875 C197.706875 40.655625 197.85125 21.12375 198 1 C132.66 1 67.32 1 0 1 C0 0.67 0 0.34 0 0 Z " fill="#636331" transform="translate(4,3)"/>
<path d="M0 0 C0.33 0 0.66 0 1 0 C1.33 8.91 1.66 17.82 2 27 C2.33 27 2.66 27 3 27 C2.92136719 27.69222656 2.84273437 28.38445313 2.76171875 29.09765625 C2.51640395 38.89733688 7.15318963 43.66110719 13.51171875 50.39453125 C14.10388184 51.00635254 14.69604492 51.61817383 15.30615234 52.24853516 C17.67701626 54.70004536 19.96038953 57.22241427 22.25 59.75 C23.054375 60.6265625 23.85875 61.503125 24.6875 62.40625 C26.96385656 64.95946073 29.11340199 67.57925249 31.25 70.25 C35.52929888 75.56118655 40.14826564 80.48764199 44.83349609 85.43676758 C49.12291679 89.99216728 53.0852207 94.69448638 56.98828125 99.5859375 C59.49472888 102.59367466 62.24419476 105.26830985 65.05078125 107.9921875 C67.1175158 110.12104834 68.92584636 112.34806997 70.75 114.6875 C75.39296175 120.63085735 80.53679848 126.06298819 85.67675781 131.57226562 C88.52780094 134.64844647 91.26361922 137.82209164 94 141 C96.10239017 143.43903779 98.20675147 145.87636107 100.3125 148.3125 C100.87670654 148.96557129 101.44091309 149.61864258 102.0222168 150.29150391 C105.37756937 154.16376865 108.78167278 157.97866759 112.25 161.75 C115.5293447 165.32166878 118.64536758 168.97426736 121.6875 172.75 C124.70512932 176.49419385 127.83287126 179.90002362 131.29296875 183.23046875 C134.50652652 186.56168538 137.2356392 190.29458021 140 194 C141.65 193.67 143.3 193.34 145 193 C143.68 194.32 142.36 195.64 141 197 C136.81824376 195.40080106 134.23263228 192.31129305 131.3125 189.0625 C130.78213135 188.48056885 130.2517627 187.8986377 129.70532227 187.29907227 C125.73498679 182.90734132 121.98303048 178.36312478 118.27734375 173.74609375 C115.78173531 170.73680948 113.16234857 167.86061346 110.5 165 C106.23079221 160.41242561 102.24241261 155.66556996 98.3125 150.78125 C95.8002899 147.75980812 93.17599173 144.87558227 90.5 142 C86.23081848 137.41239887 82.24241483 132.66557272 78.3125 127.78125 C75.8002899 124.75980812 73.17599173 121.87558227 70.5 119 C66.23081848 114.41239887 62.24241483 109.66557272 58.3125 104.78125 C55.8002899 101.75980812 53.17599173 98.87558227 50.5 96 C46.23081848 91.41239887 42.24241483 86.66557272 38.3125 81.78125 C35.35823636 78.22814914 32.23086576 74.8597632 29.08374023 71.47827148 C26.11284372 68.2670095 23.30038923 64.97372185 20.5625 61.5625 C16.63120644 56.67321974 12.4573066 52.06839001 8.16040039 47.50219727 C6.76203115 46.01223892 5.38058298 44.50645379 4 43 C3.29238525 42.29576904 2.58477051 41.59153809 1.85571289 40.8659668 C-0.70880521 36.90531978 -0.50895972 33.81562928 -0.390625 29.19921875 C-0.38496521 28.36284378 -0.37930542 27.52646881 -0.37347412 26.66474915 C-0.35116268 24.00507289 -0.30097788 21.34676595 -0.25 18.6875 C-0.22992815 16.87957681 -0.21167858 15.07163241 -0.1953125 13.26367188 C-0.15131527 8.84192389 -0.08232546 4.42119375 0 0 Z " fill="#0A0A3A" transform="translate(11,11)"/>
<path d="M0 0 C0.99 0 1.98 0 3 0 C4.91015625 2.01953125 4.91015625 2.01953125 7.0625 4.8125 C10.25290502 8.85092192 13.50207015 12.71830673 17 16.5 C21.11378909 20.9698512 24.97087297 25.59044893 28.78515625 30.31640625 C30.95632827 32.94708557 33.20241357 35.47942424 35.5 38 C39.41891252 42.29991791 43.09170869 46.75919547 46.75 51.28125 C48.93501569 53.92147729 51.19171391 56.4672972 53.5 59 C57.41891252 63.29991791 61.09170869 67.75919547 64.75 72.28125 C66.93501569 74.92147729 69.19171391 77.4672972 71.5 80 C75.41891252 84.29991791 79.09170869 88.75919547 82.75 93.28125 C84.93501569 95.92147729 87.19171391 98.4672972 89.5 101 C93.41891252 105.29991791 97.09170869 109.75919547 100.75 114.28125 C102.93501569 116.92147729 105.19171391 119.4672972 107.5 122 C111.41891252 126.29991791 115.09170869 130.75919547 118.75 135.28125 C120.93501569 137.92147729 123.19171391 140.4672972 125.5 143 C130.2057274 148.16804448 134.64912303 153.53082533 139 159 C139.58007812 159.72445312 140.16015625 160.44890625 140.7578125 161.1953125 C142 163 142 163 142 165 C140.68 165.33 139.36 165.66 138 166 C137.87238281 165.14535156 137.87238281 165.14535156 137.7421875 164.2734375 C136.78056974 161.32785045 135.26828537 159.85981357 133.125 157.625 C129.35185697 153.56437941 125.87972894 149.3847536 122.5 145 C118.58633616 139.94089014 114.50884084 135.13205701 110.17578125 130.421875 C107.88089933 127.86742834 105.71808866 125.23527893 103.5625 122.5625 C100.53282286 118.81347144 97.40395052 115.22027133 94.125 111.6875 C89.82418122 107.01994474 85.91557706 102.14549284 82.04003906 97.12841797 C78.60274315 92.70226092 74.95664909 88.53387074 71.1640625 84.40625 C68.94170854 81.93518494 66.83986762 79.39633633 64.75 76.8125 C61.09153866 72.29059061 57.32307284 67.88221101 53.5 63.5 C49.02452477 58.3678393 44.65992449 53.16814201 40.375 47.875 C36.92625621 43.70020488 33.35970842 39.63064341 29.79907227 35.55126953 C26.60423278 31.88147729 23.48501727 28.16918666 20.4375 24.375 C16.55882374 19.56975107 12.42478032 15.05121056 8.15991211 10.58935547 C5.01388547 7.25876334 2.44163845 3.87994329 0 0 Z " fill="#0B0B3B" transform="translate(39,11)"/>
<path d="M0 0 C5.30108527 4.17319479 9.34855467 8.73849208 13.546875 14.0078125 C16.09482922 17.11566749 18.76005405 20.06298358 21.5 23 C25.76979255 27.58700244 29.75762966 32.33448258 33.6875 37.21875 C36.64176364 40.77185086 39.76913424 44.1402368 42.91625977 47.52172852 C45.88715628 50.7329905 48.69961077 54.02627815 51.4375 57.4375 C54.80346265 61.62237307 58.33176017 65.58314398 62 69.5 C66.45872195 74.26091334 70.63797624 79.16467563 74.72265625 84.25390625 C77.21826469 87.26319052 79.83765143 90.13938654 82.5 93 C86.76920779 97.58757439 90.75758739 102.33443004 94.6875 107.21875 C97.1997101 110.24019188 99.82400827 113.12441773 102.5 116 C106.76173698 120.57960134 110.74592622 125.31532327 114.6640625 130.1953125 C118.14851485 134.37898605 121.87613881 138.31922365 125.6171875 142.2734375 C127.77843136 144.74646736 129.42380552 147.12944714 131 150 C128 150 128 150 126.0546875 148.19921875 C125.33539063 147.37035156 124.61609375 146.54148438 123.875 145.6875 C123.07449219 144.7696875 122.27398437 143.851875 121.44921875 142.90625 C119.16175886 140.19194353 116.91724054 137.44929156 114.6875 134.6875 C110.79744069 129.87414563 106.67128166 125.3523855 102.44433594 120.83886719 C98.52121407 116.62606859 94.88103586 112.23604648 91.27734375 107.74609375 C88.78173531 104.73680948 86.16234857 101.86061346 83.5 99 C79.23079221 94.41242561 75.24241261 89.66556996 71.3125 84.78125 C68.8002899 81.75980812 66.17599173 78.87558227 63.5 76 C59.23081848 71.41239887 55.24241483 66.66557272 51.3125 61.78125 C48.80028744 58.75980516 46.17595912 55.87561617 43.5 53 C39.19000895 48.36754339 35.14938604 43.57877484 31.1796875 38.6484375 C29.02242601 36.02724881 26.78689 33.50845719 24.5 31 C20.58892297 26.70867937 16.92010245 22.26202518 13.27734375 17.7421875 C10.27342728 14.12512169 7.08204922 10.70029177 3.84765625 7.2890625 C1.94657348 4.93380985 0.96287287 2.85333007 0 0 Z " fill="#E8E80A" transform="translate(15,54)"/>
<path d="M0 0 C1.2065625 0.0309375 1.2065625 0.0309375 2.4375 0.0625 C1.25 3 1.25 3 -0.5625 6.0625 C-3.25 6.9375 -3.25 6.9375 -5.5625 7.0625 C-5.2325 9.0425 -4.9025 11.0225 -4.5625 13.0625 C-3.964375 12.5675 -3.36625 12.0725 -2.75 11.5625 C-0.5625 10.0625 -0.5625 10.0625 2.4375 10.0625 C1.36348892 12.97767292 0.65939824 14.84060176 -1.5625 17.0625 C-2.8825 17.0625 -4.2025 17.0625 -5.5625 17.0625 C-5.2325 19.0425 -4.9025 21.0225 -4.5625 23.0625 C-3.61375 22.4025 -2.665 21.7425 -1.6875 21.0625 C1.4375 19.0625 1.4375 19.0625 3.4375 19.0625 C1.6875 24.8125 1.6875 24.8125 -0.5625 27.0625 C-2.6875 26.6875 -2.6875 26.6875 -4.5625 26.0625 C-4.5625 28.7025 -4.5625 31.3425 -4.5625 34.0625 C-3.61375 33.4025 -2.665 32.7425 -1.6875 32.0625 C1.4375 30.0625 1.4375 30.0625 3.4375 30.0625 C2.2516763 33.43753669 1.16176311 35.70972731 -1.5625 38.0625 C-3.2125 37.4025 -4.8625 36.7425 -6.5625 36.0625 C-6.5625 37.7125 -6.5625 39.3625 -6.5625 41.0625 C-6.8925 41.0625 -7.2225 41.0625 -7.5625 41.0625 C-7.5625 32.8125 -7.5625 24.5625 -7.5625 16.0625 C-9.2125 16.3925 -10.8625 16.7225 -12.5625 17.0625 C-16.5625 12.3125 -16.5625 12.3125 -16.5625 10.0625 C-13.62546616 10.69186439 -11.22461372 11.68670173 -8.5625 13.0625 C-8.53671875 12.36382812 -8.5109375 11.66515625 -8.484375 10.9453125 C-8.42765625 10.03523438 -8.3709375 9.12515625 -8.3125 8.1875 C-8.24289063 6.83011719 -8.24289063 6.83011719 -8.171875 5.4453125 C-7.5625 3.0625 -7.5625 3.0625 -5.578125 1.8046875 C-4.91296875 1.55976562 -4.2478125 1.31484375 -3.5625 1.0625 C-2.5625 0.0625 -2.5625 0.0625 0 0 Z " fill="#88882B" transform="translate(145.5625,42.9375)"/>
<path d="M0 0 C3.24282643 0.56810222 4.70604883 1.37164944 6.8125 3.88671875 C7.32458008 4.48838867 7.83666016 5.09005859 8.36425781 5.70996094 C9.1739502 6.68884277 9.1739502 6.68884277 10 7.6875 C10.5681543 8.35942383 11.13630859 9.03134766 11.72167969 9.72363281 C12.90443527 11.12262626 14.08376055 12.52452649 15.25976562 13.92919922 C17.39769242 16.47323613 19.5681943 18.98793489 21.7409668 21.50219727 C25.79379173 26.19628782 29.78261169 30.93148965 33.6875 35.75 C37.23862066 40.12651627 40.95797398 44.3083146 44.75390625 48.47265625 C47.84213971 51.94759025 50.73682459 55.5675256 53.65234375 59.1875 C56.95276061 63.14141038 60.47623985 66.86476367 64.03125 70.58984375 C65.89215749 72.86797851 66.62717317 74.1305649 67 77 C62.71716398 75.42423958 60.31491559 72.1617956 57.5 68.75 C56.42726025 67.4738096 55.35433854 66.19777214 54.28125 64.921875 C53.46333984 63.94250977 53.46333984 63.94250977 52.62890625 62.94335938 C50.11162664 59.94013011 47.55519545 56.97096177 45 54 C43.99978523 52.83351746 42.99978585 51.66685019 42 50.5 C41.505 49.9225 41.01 49.345 40.5 48.75 C35 42.33333333 29.5 35.91666667 24 29.5 C23.5042749 28.9217749 23.0085498 28.3435498 22.49780273 27.74780273 C21.50464364 26.5888743 20.51196242 25.42953615 19.51977539 24.26977539 C16.91901499 21.23106422 14.30867825 18.20132893 11.68359375 15.18359375 C11.14025391 14.55646484 10.59691406 13.92933594 10.03710938 13.28320312 C9.0011169 12.08782719 7.96223257 10.8949489 6.91992188 9.70507812 C4.2573403 6.62612577 1.97111129 3.5639285 0 0 Z " fill="#E9E909" transform="translate(101,80)"/>
<path d="M0 0 C1.85072288 3.31520793 2.71059717 6.57529703 3.625 10.25 C11.91312946 39.59363481 34.54580443 61.18497654 60.33984375 76.07421875 C60.88769531 76.37972656 61.43554688 76.68523437 62 77 C58.5340971 78.15530097 57.312797 77.63542203 54.0859375 76.14453125 C49.80942236 73.79805384 45.9260902 70.88198223 42 68 C40.80310547 67.14921875 40.80310547 67.14921875 39.58203125 66.28125 C38.85371094 65.7553125 38.12539063 65.229375 37.375 64.6875 C36.72273438 64.21699219 36.07046875 63.74648437 35.3984375 63.26171875 C34.93695313 62.84535156 34.47546875 62.42898437 34 62 C34 61.34 34 60.68 34 60 C33.34 60 32.68 60 32 60 C32 59.34 32 58.68 32 58 C31.43539062 57.76667969 30.87078125 57.53335938 30.2890625 57.29296875 C16.26083152 49.36917275 5.60153732 28.07320279 1.1875 13.3125 C0.01737229 8.73716918 -0.26633214 4.70520119 0 0 Z " fill="#5C5C70" transform="translate(6,148)"/>
<path d="M0 0 C4.97730427 3.88472528 8.9340755 8.18449165 13 13 C14.89207744 15.23237914 16.78850236 17.46100509 18.6875 19.6875 C19.45284058 20.585896 19.45284058 20.585896 20.23364258 21.50244141 C23.83029678 25.69993527 27.53497074 29.77764261 31.3125 33.8125 C35.84776153 38.65763322 40.06920574 43.64360077 44 49 C46.475 48.505 46.475 48.505 49 48 C47.68 49.32 46.36 50.64 45 52 C40.81824376 50.40080106 38.23263228 47.31129305 35.3125 44.0625 C34.78213135 43.48056885 34.2517627 42.8986377 33.70532227 42.29907227 C29.73498679 37.90734132 25.98303048 33.36312478 22.27734375 28.74609375 C19.78170332 25.7367709 17.16171703 22.86123088 14.5 20 C0 4.3540569 0 4.3540569 0 0 Z " fill="#0A0A3A" transform="translate(107,156)"/>
<path d="M0 0 C7.292818 1.39408707 13.19321351 4.47654834 19.6875 8 C21.71112642 9.08541126 23.73582911 10.16881887 25.76171875 11.25 C26.64819092 11.72953125 27.53466309 12.2090625 28.44799805 12.703125 C30.92159048 13.96015389 33.40862847 15.01225618 36 16 C36 16.99 36 17.98 36 19 C48.40151985 18.04419886 59.59964794 12.64109806 69.9375 5.9375 C70.948125 5.298125 71.95875 4.65875 73 4 C73.99 4.495 73.99 4.495 75 5 C49.12062363 22.21895514 49.12062363 22.21895514 35 20 C22.76188769 16.07896097 10.37297064 8.47520628 0 1 C0 0.67 0 0.34 0 0 Z " fill="#A1A1B0" transform="translate(63,225)"/>
<path d="M0 0 C0.33 0 0.66 0 1 0 C1.0233607 17.51545827 1.04099478 35.03091167 1.05181217 52.54638195 C1.05696838 60.67911996 1.06399825 68.81184828 1.07543945 76.94458008 C1.08540688 84.03308964 1.09185834 91.1215922 1.09408849 98.21010858 C1.09539209 101.96338126 1.09845583 105.71663388 1.10573006 109.46990013 C1.1137848 113.65987411 1.11398981 117.84981322 1.11352539 122.03979492 C1.11712067 123.28416824 1.12071594 124.52854156 1.12442017 125.81062317 C1.1230455 126.95340729 1.12167084 128.09619141 1.12025452 129.27360535 C1.12117631 130.2645328 1.1220981 131.25546026 1.12304783 132.27641582 C1.00225953 134.94998669 0.5988059 137.39544416 0 140 C-0.33 140 -0.66 140 -1 140 C-1.84679165 135.78733889 -2.00314746 132.18040548 -1.57533264 127.91145325 C-1.00119213 121.39981227 -0.82934872 114.95100049 -0.79467773 108.41674805 C-0.78477814 107.23466766 -0.77487854 106.05258728 -0.76467896 104.83468628 C-0.73341315 100.97704991 -0.70844652 97.11940129 -0.68359375 93.26171875 C-0.66349419 90.56744179 -0.64204074 87.87317605 -0.62062073 85.1789093 C-0.57101925 78.84344869 -0.52596192 72.50796452 -0.48259836 66.17245847 C-0.43294493 58.95098507 -0.3781325 51.72955359 -0.32291877 44.50812089 C-0.20959939 29.67212001 -0.10265452 14.83607867 0 0 Z " fill="#000036" transform="translate(202,3)"/>
<path d="M0 0 C0.33 0 0.66 0 1 0 C1.33 8.91 1.66 17.82 2 27 C2.33 27 2.66 27 3 27 C2.92136719 27.69222656 2.84273437 28.38445313 2.76171875 29.09765625 C2.51653653 38.89204078 7.14584796 43.65523047 13.50390625 50.3828125 C14.09574707 50.99415039 14.68758789 51.60548828 15.29736328 52.23535156 C17.72076617 54.74701719 20.04179616 57.34185566 22.375 59.9375 C24.63761935 62.42230783 26.90517621 64.89913434 29.20703125 67.34765625 C29.86058594 68.05792969 30.51414062 68.76820312 31.1875 69.5 C31.75855469 70.1084375 32.32960937 70.716875 32.91796875 71.34375 C33.27503906 71.8903125 33.63210937 72.436875 34 73 C33.505 74.485 33.505 74.485 33 76 C32.16597656 75.03320312 31.33195312 74.06640625 30.47265625 73.0703125 C22.93715605 64.3432693 22.93715605 64.3432693 15.25 55.75 C11.28352209 51.38027573 7.54889315 46.84553929 3.84765625 42.25 C2.04394839 39.97880251 2.04394839 39.97880251 0 38 C-0.17532289 35.13111419 -0.23137614 32.36007355 -0.1953125 29.4921875 C-0.1924826 28.65156769 -0.18965271 27.81094788 -0.18673706 26.94485474 C-0.1755243 24.25475954 -0.15041803 21.5649949 -0.125 18.875 C-0.1149716 17.05339022 -0.10584551 15.23177523 -0.09765625 13.41015625 C-0.07558142 8.93997642 -0.04104434 4.47004429 0 0 Z " fill="#393935" transform="translate(11,11)"/>
<path d="M0 0 C0.66 0.33 1.32 0.66 2 1 C-10.85200945 10.60811283 -28.3577006 23.38685828 -45 22 C-45 21.34 -45 20.68 -45 20 C-43.9790625 19.92265625 -43.9790625 19.92265625 -42.9375 19.84375 C-28.93050062 18.20463305 -17.28033009 10.49427677 -5.79296875 2.78515625 C-3 1 -3 1 0 0 Z " fill="#18183D" transform="translate(144,222)"/>
<path d="M0 0 C3.66947714 1.57753223 6.26796067 3.86780886 9.25 6.5 C16.27253862 12.5555373 24.05507903 17.2612781 32 22 C28.5340971 23.15530097 27.312797 22.63542203 24.0859375 21.14453125 C19.80942236 18.79805384 15.9260902 15.88198223 12 13 C11.20207031 12.4328125 10.40414062 11.865625 9.58203125 11.28125 C8.85371094 10.7553125 8.12539063 10.229375 7.375 9.6875 C6.72273438 9.21699219 6.07046875 8.74648437 5.3984375 8.26171875 C4.93695313 7.84535156 4.47546875 7.42898437 4 7 C4 6.34 4 5.68 4 5 C3.34 5 2.68 5 2 5 C2 4.34 2 3.68 2 3 C1.34 3 0.68 3 0 3 C0 2.01 0 1.02 0 0 Z " fill="#444461" transform="translate(36,203)"/>
<path d="M0 0 C0.66 0.33 1.32 0.66 2 1 C-2.15730821 5.51823208 -6.40325789 9.14410417 -11.578125 12.4453125 C-14.29090803 14.18674419 -16.92590902 16.02044871 -19.5625 17.875 C-20.40941406 18.47054687 -21.25632813 19.06609375 -22.12890625 19.6796875 C-22.74636719 20.11539063 -23.36382812 20.55109375 -24 21 C-24.66 20.67 -25.32 20.34 -26 20 C-25.24203125 19.51080078 -25.24203125 19.51080078 -24.46875 19.01171875 C-23.8190625 18.57472656 -23.169375 18.13773438 -22.5 17.6875 C-21.8503125 17.25824219 -21.200625 16.82898438 -20.53125 16.38671875 C-20.0259375 15.92910156 -19.520625 15.47148437 -19 15 C-19 14.01 -19 13.02 -19 12 C-16.1245571 9.13306432 -12.77138935 7.25188224 -8.9375 6 C-5.1058754 4.69561716 -2.98947281 2.70476112 0 0 Z M-22 14 C-20 15 -20 15 -20 15 Z " fill="#7B7B96" transform="translate(164,208)"/>
<path d="M0 0 C0.33 0 0.66 0 1 0 C1 9.57 1 19.14 1 29 C0.67 29 0.34 29 0 29 C0 23.72 0 18.44 0 13 C-1.65 13.33 -3.3 13.66 -5 14 C-9 9.25 -9 9.25 -9 7 C-5.92463146 7.65900754 -3.92264434 8.53867783 -1 10 C-0.67 6.7 -0.34 3.4 0 0 Z " fill="#F2F205" transform="translate(138,46)"/>
<path d="M0 0 C0.763125 0.309375 1.52625 0.61875 2.3125 0.9375 C4.18789677 1.67893593 6.08684652 2.36228217 8 3 C8.66 2.34 9.32 1.68 10 1 C10 10.57 10 20.14 10 30 C9.67 30 9.34 30 9 30 C9 21.75 9 13.5 9 5 C7.02 5.33 5.04 5.66 3 6 C1.125 4.75 1.125 4.75 0 3 C0 2.01 0 1.02 0 0 Z " fill="#EDED08" transform="translate(46,151)"/>
<path d="M0 0 C5.19644079 1.59890486 10.06612142 3.74138003 15 6 C15 6.99 15 7.98 15 9 C9.14727744 8.54979057 4.91779881 5.96160773 0 3 C0 2.01 0 1.02 0 0 Z " fill="#53536F" transform="translate(84,235)"/>
<path d="M0 0 C3.17061772 0.29815442 4.09171764 1.0946028 6.359375 3.43359375 C7.14828125 4.42488281 7.9371875 5.41617188 8.75 6.4375 C9.94882813 7.92056641 9.94882813 7.92056641 11.171875 9.43359375 C13 12 13 12 13 14 C8.94065655 12.44515973 6.92149038 9.78559333 4.25 6.4375 C3.45078125 5.44621094 2.6515625 4.45492187 1.828125 3.43359375 C0 1 0 1 0 0 Z " fill="#E2E20C" transform="translate(78,128)"/>
<path d="M0 0 C-1.53643852 3.68069887 -3.78150945 5.98775204 -6.625 8.75 C-7.85089844 9.94882813 -7.85089844 9.94882813 -9.1015625 11.171875 C-9.72804687 11.77515625 -10.35453125 12.3784375 -11 13 C-11.99 12.67 -12.98 12.34 -14 12 C-12.04761147 9.99387601 -10.08862178 7.99507567 -8.125 6 C-7.29162109 5.14148438 -7.29162109 5.14148438 -6.44140625 4.265625 C-2.2265625 0 -2.2265625 0 0 0 Z " fill="#0D0D36" transform="translate(182,189)"/>
<path d="M0 0 C-1.25 2.9375 -1.25 2.9375 -3 6 C-5.1875 6.875 -5.1875 6.875 -7 7 C-7.6875 5.1875 -7.6875 5.1875 -8 3 C-5.85915306 -0.33020635 -3.75910189 -0.30479204 0 0 Z " fill="#ECEC08" transform="translate(148,43)"/>
<path d="M0 0 C3.2826932 1.49076434 5.93077441 3.38620321 8.75 5.625 C9.94882812 6.57246094 9.94882812 6.57246094 11.171875 7.5390625 C11.77515625 8.02117187 12.3784375 8.50328125 13 9 C10 10 10 10 6.8125 8.5625 C5.884375 8.046875 4.95625 7.53125 4 7 C4 6.34 4 5.68 4 5 C3.34 5 2.68 5 2 5 C2 4.34 2 3.68 2 3 C1.34 3 0.68 3 0 3 C0 2.01 0 1.02 0 0 Z " fill="#3D3D5C" transform="translate(36,203)"/>
<path d="M0 0 C-1.75 5.75 -1.75 5.75 -4 8 C-6.125 7.625 -6.125 7.625 -8 7 C-8 6.01 -8 5.02 -8 4 C-2.74285714 0 -2.74285714 0 0 0 Z " fill="#E4E40B" transform="translate(149,62)"/>
<path d="M0 0 C0.99 0.33 1.98 0.66 3 1 C0.69281189 5.28477792 -1.32966073 8.72291137 -5 12 C-5.66 11.34 -6.32 10.68 -7 10 C-6.57847656 9.44570312 -6.15695313 8.89140625 -5.72265625 8.3203125 C-5.17480469 7.59585938 -4.62695312 6.87140625 -4.0625 6.125 C-3.51722656 5.40570313 -2.97195312 4.68640625 -2.41015625 3.9453125 C-0.96035376 2.05642921 -0.96035376 2.05642921 0 0 Z " fill="#191941" transform="translate(187,178)"/>
<path d="M0 0 C2.92879371 0.62759865 5.36095629 1.58622659 8 3 C7.67 4.65 7.34 6.3 7 8 C3.64379729 6.61122646 1.92701272 5.08322035 0 2 C0 1.34 0 0.68 0 0 Z " fill="#E3E30B" transform="translate(46,141)"/>
<path d="M0 0 C2 2 2 2 2.1953125 4.1640625 C2.17210937 4.97617188 2.14890625 5.78828125 2.125 6.625 C2.10695313 7.44226563 2.08890625 8.25953125 2.0703125 9.1015625 C2.03550781 10.04128906 2.03550781 10.04128906 2 11 C0.68 10.67 -0.64 10.34 -2 10 C-1.125 2.25 -1.125 2.25 0 0 Z " fill="#DCDC0D" transform="translate(55,130)"/>
<path d="M0 0 C2.9719385 1.12451727 5.33440687 2.22293791 8 4 C8 4.99 8 5.98 8 7 C7.01 7.33 6.02 7.66 5 8 C2.5 5.6875 2.5 5.6875 0 3 C0 2.01 0 1.02 0 0 Z " fill="#ECEC07" transform="translate(45,161)"/>
<path d="M0 0 C0.33 0.99 0.66 1.98 1 3 C-0.9375 6.1875 -0.9375 6.1875 -3 9 C-3.99 8.67 -4.98 8.34 -6 8 C-5.8125 5.6875 -5.8125 5.6875 -5 3 C-2.4375 1.1875 -2.4375 1.1875 0 0 Z " fill="#EFEF07" transform="translate(64,140)"/>
<path d="M0 0 C-1.1858237 3.37503669 -2.27573689 5.64722731 -5 8 C-5.99 7.67 -6.98 7.34 -8 7 C-7.8125 5.1875 -7.8125 5.1875 -7 3 C-2.82142857 0 -2.82142857 0 0 0 Z " fill="#EDED07" transform="translate(149,73)"/>
<path d="M0 0 C2.71224618 1.61268692 5.37352812 3.24901874 8 5 C7.34 6.32 6.68 7.64 6 9 C5.34 9 4.68 9 4 9 C0 3.70588235 0 3.70588235 0 0 Z " fill="#E9E90A" transform="translate(129,72)"/>
<path d="M0 0 C-0.8125 2.4375 -0.8125 2.4375 -2 5 C-2.99 5.33 -3.98 5.66 -5 6 C-5 6.66 -5 7.32 -5 8 C-5.99 7.67 -6.98 7.34 -8 7 C-7.8125 5.1875 -7.8125 5.1875 -7 3 C-2.82142857 0 -2.82142857 0 0 0 Z " fill="#EAEA09" transform="translate(66,151)"/>
<path d="M0 0 C3.68754757 0.49831724 5.60490662 1.10067643 8 4 C7.67 4.99 7.34 5.98 7 7 C4.20171644 6.61402985 3.1794116 6.19863427 1.25 4.0625 C0 2 0 2 0 0 Z " fill="#E8E809" transform="translate(128,63)"/>
<path d="M0 0 C3.37503669 1.1858237 5.64722731 2.27573689 8 5 C7.67 5.99 7.34 6.98 7 8 C5.1875 7.8125 5.1875 7.8125 3 7 C0 2.82142857 0 2.82142857 0 0 Z " fill="#E7E70A" transform="translate(129,42)"/>
<path d="M0 0 C0.66 0 1.32 0 2 0 C2 2.97 2 5.94 2 9 C0.68 9 -0.64 9 -2 9 C-1.125 1.125 -1.125 1.125 0 0 Z " fill="#EEEE07" transform="translate(138,32)"/>
<path d="M0 0 C4.75 0.75 4.75 0.75 7 3 C7 4.32 7 5.64 7 7 C4.625 6.3125 4.625 6.3125 2 5 C0.6875 2.375 0.6875 2.375 0 0 Z " fill="#ECEC07" transform="translate(46,172)"/>
<path d="M0 0 C-1.07401108 2.91517292 -1.77810176 4.77810176 -4 7 C-4.99 7 -5.98 7 -7 7 C-6.6875 4.625 -6.6875 4.625 -6 2 C-3 0 -3 0 0 0 Z " fill="#EDED08" transform="translate(148,53)"/>
<path d="M0 0 C1.98 0 3.96 0 6 0 C2.56638098 3.63559661 -0.7973607 6.36113346 -5 9 C-5.66 8.67 -6.32 8.34 -7 8 C-6.24203125 7.51080078 -6.24203125 7.51080078 -5.46875 7.01171875 C-4.49421875 6.35623047 -4.49421875 6.35623047 -3.5 5.6875 C-2.8503125 5.25824219 -2.200625 4.82898438 -1.53125 4.38671875 C-1.0259375 3.92910156 -0.520625 3.47148437 0 3 C0 2.01 0 1.02 0 0 Z M-3 2 C-1 3 -1 3 -1 3 Z " fill="#B3B3BE" transform="translate(145,220)"/>
<path d="M0 0 C0.66 0 1.32 0 2 0 C1.57405412 1.44096586 1.13373367 2.87768712 0.6875 4.3125 C0.44386719 5.11300781 0.20023438 5.91351563 -0.05078125 6.73828125 C-1.04182023 9.09964573 -2.08074943 10.33879993 -4 12 C-4.33 11.34 -4.66 10.68 -5 10 C-4.00390625 7.6171875 -4.00390625 7.6171875 -2.5625 4.875 C-1.85287109 3.50988281 -1.85287109 3.50988281 -1.12890625 2.1171875 C-0.75636719 1.41851562 -0.38382813 0.71984375 0 0 Z " fill="#08083A" transform="translate(193,167)"/>
<path d="M0 0 C0.66 0.33 1.32 0.66 2 1 C-1.3 3.31 -4.6 5.62 -8 8 C-8.33 7.01 -8.66 6.02 -9 5 C-7.54735962 4.1361871 -6.0876837 3.28419546 -4.625 2.4375 C-3.40683594 1.72400391 -3.40683594 1.72400391 -2.1640625 0.99609375 C-1.44992188 0.66738281 -0.73578125 0.33867187 0 0 Z " fill="#141442" transform="translate(144,222)"/>
<path d="M0 0 C0.6875 1.8125 0.6875 1.8125 1 4 C-0.25 5.75 -0.25 5.75 -2 7 C-2.99 7 -3.98 7 -5 7 C-5 5.68 -5 4.36 -5 3 C-2.5 1.25 -2.5 1.25 0 0 Z " fill="#EBEB08" transform="translate(64,172)"/>
<path d="M0 0 C0.99 0 1.98 0 3 0 C2.4409112 3.24271506 1.5867822 4.93057424 -1 7 C-1.66 7 -2.32 7 -3 7 C-2.25 2.25 -2.25 2.25 0 0 Z " fill="#F1F106" transform="translate(62,162)"/>
<path d="M0 0 C4.67692308 1.47692308 4.67692308 1.47692308 6.3125 4.125 C6.539375 4.74375 6.76625 5.3625 7 6 C2.25 5.25 2.25 5.25 0 3 C0 2.01 0 1.02 0 0 Z " fill="#D1D111" transform="translate(46,151)"/>
<path d="M0 0 C0.33 0 0.66 0 1 0 C1.03738281 0.83144531 1.07476562 1.66289063 1.11328125 2.51953125 C1.17902344 3.60621094 1.24476562 4.69289063 1.3125 5.8125 C1.37050781 6.89144531 1.42851562 7.97039063 1.48828125 9.08203125 C2.0431573 12.24609546 2.63264023 12.98806153 5 15 C5 15.66 5 16.32 5 17 C1.52168408 15.84056136 0.75373927 15.15779035 -1 12 C-1.07421875 8.984375 -1.07421875 8.984375 -0.6875 5.75 C-0.56761719 4.67234375 -0.44773437 3.5946875 -0.32421875 2.484375 C-0.21722656 1.66453125 -0.11023437 0.8446875 0 0 Z " fill="#383859" transform="translate(13,38)"/>
<path d="M0 0 C3.36720387 1.39332574 4.9859524 2.9789286 7 6 C6.34 6.66 5.68 7.32 5 8 C2.5 5.6875 2.5 5.6875 0 3 C0 2.01 0 1.02 0 0 Z " fill="#71717C" transform="translate(30,197)"/>
<path d="M0 0 C3 0 3 0 4.82421875 1.75 C5.43910156 2.4925 6.05398437 3.235 6.6875 4 C7.31011719 4.7425 7.93273438 5.485 8.57421875 6.25 C9.04472656 6.8275 9.51523437 7.405 10 8 C9.01 8.33 8.02 8.66 7 9 C5.83037314 7.69013727 4.66437056 6.3770374 3.5 5.0625 C2.8503125 4.33160156 2.200625 3.60070312 1.53125 2.84765625 C0 1 0 1 0 0 Z " fill="#1F1F43" transform="translate(39,11)"/>
<path d="M0 0 C5.75 1.875 5.75 1.875 8 3 C8 3.66 8 4.32 8 5 C5.69 4.67 3.38 4.34 1 4 C0.67 2.68 0.34 1.36 0 0 Z " fill="#38385D" transform="translate(84,235)"/>
<path d="M0 0 C0.66 0 1.32 0 2 0 C1.34 2.97 0.68 5.94 0 9 C-0.99 8.67 -1.98 8.34 -3 8 C-2.01 5.36 -1.02 2.72 0 0 Z " fill="#1F1F3F" transform="translate(196,158)"/>
<path d="M0 0 C2.72574271 0.37330824 3.80822085 0.79194601 5.703125 2.84765625 C6.21359375 3.57855469 6.7240625 4.30945312 7.25 5.0625 C8.03117187 6.16271484 8.03117187 6.16271484 8.828125 7.28515625 C9.21484375 7.85105469 9.6015625 8.41695312 10 9 C7 9 7 9 5.17578125 7.28515625 C4.56089844 6.55167969 3.94601563 5.81820312 3.3125 5.0625 C2.68988281 4.33160156 2.06726562 3.60070313 1.42578125 2.84765625 C0 1 0 1 0 0 Z " fill="#171738" transform="translate(57,32)"/>
<path d="M0 0 C3.4375 0.8125 3.4375 0.8125 7 2 C7.33 2.99 7.66 3.98 8 5 C4.20411134 4.45773019 2.52788007 2.79872437 0 0 Z " fill="#646481" transform="translate(44,212)"/>
</svg>
